<svg xmlns="http://www.w3.org/2000/svg" viewBox="0 0 111.07 167.97"><defs><style>.cls-1{fill:#fbc0a0;}.cls-2{fill:#676767;}.cls-3{fill:#c1e4d9;}.cls-4{fill:#4f4e4e;}.cls-5{fill:#b5b4b4;}.cls-6{fill:#edf7f3;}.cls-7{fill:#808181;}.cls-8{fill:#989899;}</style></defs><g id="Calque_2" data-name="Calque 2"><g id="Calque_1-2" data-name="Calque 1"><path class="cls-1" d="M85.76.57a4.32,4.32,0,0,0-3.43,1.71A4.3,4.3,0,0,0,74.45,3a4.27,4.27,0,0,0-3.82-1.33A4.43,4.43,0,0,0,67,6.05V17.17s-1,1.5-1.65,2.32a16.32,16.32,0,0,0-1.27,1.87,5.21,5.21,0,0,0-.44,1,6.52,6.52,0,0,0-.29,1.89,6.94,6.94,0,0,0,.52,2.57,14.85,14.85,0,0,0,1.49,2.72C66.63,31.4,71,36.33,71,36.33V70.07H0v28H78.54S94,89.08,94,80.52V36.3c2.2-2.64,4-9.78,4-9.78V6a4.4,4.4,0,0,0-3.27-4.34,4.34,4.34,0,0,0-4.34,1.43A4.32,4.32,0,0,0,86.46.57"/><path class="cls-2" d="M50,123.68a10.39,10.39,0,0,0,10.38,10.39H78v.71a1.29,1.29,0,0,0,1.29,1.29h5.87a12.29,12.29,0,0,0,23,2.34,16,16,0,0,1-2.09-.35,10.34,10.34,0,0,1-12.57,4.68,9.74,9.74,0,0,1-6-5.79,10.36,10.36,0,0,1,5.32-13.24,16.22,16.22,0,0,1-.17-2.1,12.29,12.29,0,0,0-7.49,8.46H79.29A1.28,1.28,0,0,0,78,131.35v1.72H60.19A9.19,9.19,0,0,1,51,123.88V99.07H50Z"/><path class="cls-2" d="M96,152c3.72,0,6.75,1.48,6.75,3.31s-3,3.31-6.75,3.31-6.75-1.48-6.75-3.31S92.26,152,96,152m10.93,5.2a1.2,1.2,0,0,1,1.14,2,1.19,1.19,0,0,1-1.14-2M42,148.69a10.38,10.38,0,0,0,10.38,10.38H78v1.76a1.24,1.24,0,0,0,1.24,1.24h4.21c1.8,3.44,6.55,5.9,12.13,5.9s10.33-2.46,12.12-5.9h.39a2.89,2.89,0,0,0,2.67-1.62,3,3,0,0,0-2.69-4.38h-.31c-1.76-3.5-6.55-6-12.18-6s-10.42,2.51-12.18,6H79.24A1.23,1.23,0,0,0,78,157.31v.76H52.19A9.19,9.19,0,0,1,43,148.88V99.07H42Z"/><path class="cls-3" d="M102.19,139.56a.17.17,0,0,1-.21,0l-1-1a.15.15,0,0,1,.21-.21l1,1a.16.16,0,0,1,0,.22M97,141.89a6,6,0,0,0-.8.15c-.09,0-.15-.07-.2-.15v-1.38c0-.08.11-.15.2-.15a6,6,0,0,0,.8.15Zm-5.61-13.14a.15.15,0,0,1-.21,0l-1-1a.17.17,0,0,1,0-.21.16.16,0,0,1,.22,0l1,1a.14.14,0,0,1,0,.21m0,9.83-1,1a.16.16,0,0,1-.22-.22l1-1a.15.15,0,0,1,.21.21M89,133.07H87.87c-.08.64-.15.57-.15.49s.07-.15.15-.49h1.38c.08.34.15.41.15.49a.15.15,0,0,1-.15.15m8.07.71a1.41,1.41,0,0,1-2.54-.86,1.09,1.09,0,0,1,0-.26h0v-.07l.36-1.18a16.17,16.17,0,0,1-3-7.33,9.73,9.73,0,1,0,12.53,13.58,16.37,16.37,0,0,1-7.38-3.87"/><path class="cls-2" d="M101.22,138.37a.15.15,0,0,0-.21.21l1,1a.17.17,0,0,0,.21,0,.16.16,0,0,0,0-.22Z"/><path class="cls-2" d="M96.2,140.36c-.09,0-.15.07-.2.15v1.38c0,.08.11.15.2.15a6,6,0,0,1,.8-.15v-1.38a6,6,0,0,1-.8-.15"/><path class="cls-2" d="M91.18,138.37l-1,1a.16.16,0,0,0,.22.22l1-1a.15.15,0,0,0-.21-.21"/><path class="cls-2" d="M89,133.07H87.87c-.08.34-.15.41-.15.49s.07.15.15-.49h1.38c.08.64.15.57.15.49a.15.15,0,0,0-.15-.15"/><path class="cls-2" d="M90.42,127.57a.16.16,0,0,0-.22,0,.17.17,0,0,0,0,.21l1,1a.15.15,0,0,0,.21-.21Z"/><path class="cls-4" d="M95.18,132l-.36,1.18v.07h0a1.09,1.09,0,0,0,0,.26,1.41,1.41,0,0,0,2.54.86A16.1,16.1,0,0,1,95.18,132"/><path class="cls-5" d="M92.16,124.71a9.72,9.72,0,0,1,13.75,8.78,9.62,9.62,0,0,1-1.22,4.8,18,18,0,0,0,2,.32h0c.09-.18.17-.37.25-.56l.06-.14.16-.42c0-.07.05-.14.07-.2l.12-.39.06-.22c0-.12.07-.25.1-.37l.06-.24c0-.12,0-.25.07-.37a2,2,0,0,0,0-.24c0-.13,0-.26.06-.39l0-.24c0-.14,0-.28,0-.42s0-.14,0-.21,0-.42,0-.64a11.62,11.62,0,0,0-11.62-11.62h-.57l-.25,0-.31,0-.32,0-.23,0-.36.06-.17,0-.4.09-.11,0-.44.12-.07,0-.46.14h0l-.48.17h0A16.18,16.18,0,0,0,92.16,124.71Z"/><path class="cls-6" d="M97,125.24c-1-.09-.89-.15-.8-.15s.15.06-.2.15v1.37c.35.08.28.15.2.15s-.15-.07.8-.15Zm4,3.3,1-1a.15.15,0,1,1,.21.21l-1,1a.15.15,0,0,1-.21-.21m2,4.53h1.52c.09.34.15.41.15.49s-.06.15-.15-.49h-1.37c-.09.64-.15.57-.15.49a.15.15,0,0,1,.15-.15m-7-4.76,1.37,4.57,0,.07h0a2.11,2.11,0,0,1,0,.26,1.41,1.41,0,0,1-.29.86,16.22,16.22,0,0,0,7.38,3.87,9.73,9.73,0,0,0-12.53-13.58,16.17,16.17,0,0,0,3,7.33Z"/><path class="cls-2" d="M96.2,126.76c.08,0,.15-.07-.2-.15v-1.37c.35-.09.28-.15.2-.15s-.15.06.8.15v1.37c-1,.08-.89.15-.8.15"/><path class="cls-2" d="M101.22,128.75l1-1a.15.15,0,1,0-.21-.21l-1,1a.15.15,0,0,0,.21.21"/><path class="cls-2" d="M103,133.07h1.52c.09.64.15.57.15.49s-.06-.15-.15-.49h-1.37c-.09.34-.15.41-.15.49a.15.15,0,0,0,.15.15"/><path class="cls-7" d="M97.32,134.42a1.41,1.41,0,0,0,.29-.86,2.11,2.11,0,0,0,0-.26h0l0-.07-1.37-4.57-1,3.39a15.61,15.61,0,0,0,2.14,2.38"/><path class="cls-8" d="M96,158.61c3.72,0,6.75-1.48,6.75-3.31S99.71,152,96,152s-6.75,1.48-6.75,3.31,3,3.31,6.75,3.31"/><path class="cls-5" d="M108.06,159.18a1.19,1.19,0,1,0-1.32-.56,1,1,0,0,0,1.32.56"/><path class="cls-4" d="M62.24,70.17a3.11,3.11,0,0,0-2.94-2.1H59V94.36a1.72,1.72,0,0,1-1.71,1.71H36.68A1.69,1.69,0,0,1,35,94.38V68.07h-1a3.06,3.06,0,0,0-2.89,2.07,3.19,3.19,0,0,0-.16,1v8.15h0V96a3,3,0,0,0,.19,1,3.45,3.45,0,0,0,.14.34c.07.13.14.25.22.37a3.08,3.08,0,0,0,2.5,1.3H58.9A3.1,3.1,0,0,0,62,96V71a2.94,2.94,0,0,0-.17-1"/><path class="cls-7" d="M37,96.07H57.29A1.72,1.72,0,0,0,59,94.36V68.07H35V94.38a1.69,1.69,0,0,0,1.69,1.69"/></g></g></svg>